<?xml version="1.0" encoding="utf-8"?>
<svg viewBox="0 0 471.701 471.701" fill="#000000" xmlns="http://www.w3.org/2000/svg">
  <g transform="matrix(1, 0, 0, 1, 2.1637399519047165, -1.4425159907715823)">
    <path d="M433.601,67.001c-24.7-24.7-57.4-38.2-92.3-38.2s-67.7,13.6-92.4,38.3l-12.9,12.9l-13.1-13.1&#10;&#9;&#9;c-24.7-24.7-57.6-38.4-92.5-38.4c-34.8,0-67.6,13.6-92.2,38.2c-24.7,24.7-38.3,57.5-38.2,92.4c0,34.9,13.7,67.6,38.4,92.3&#10;&#9;&#9;l187.8,187.8c2.6,2.6,6.1,4,9.5,4c3.4,0,6.9-1.3,9.5-3.9l188.2-187.5c24.7-24.7,38.3-57.5,38.3-92.4&#10;&#9;&#9;C471.801,124.501,458.301,91.701,433.601,67.001z M414.401,232.701l-178.7,178l-178.3-178.3c-19.6-19.6-30.4-45.6-30.4-73.3&#10;&#9;&#9;s10.7-53.7,30.3-73.2c19.5-19.5,45.5-30.3,73.1-30.3c27.7,0,53.8,10.8,73.4,30.4l22.6,22.6c5.3,5.3,13.8,5.3,19.1,0l22.4-22.4&#10;&#9;&#9;c19.6-19.6,45.7-30.4,73.3-30.4c27.6,0,53.6,10.8,73.2,30.3c19.6,19.6,30.3,45.6,30.3,73.3&#10;&#9;&#9;C444.801,187.101,434.001,213.101,414.401,232.701z" style="fill-rule: nonzero; stroke-width: 50px; fill: rgb(255, 0, 0); paint-order: fill; stroke-opacity: 0;"/>
  </g>
  <path style="stroke: rgb(0, 0, 0); fill: rgb(255, 0, 0); paint-order: fill; stroke-opacity: 0;" d="M 103.5 56.619 C 98.014 58.447 85.336 60.358 81.141 64.552 C 74.242 71.452 67.174 79.012 60.946 88.354 C 59.6 90.373 56.596 99.544 55.897 99.894 C 49.877 102.904 44.694 108.933 40.751 112.876 C 33.003 120.624 36.867 142.116 34.26 152.546 C 32.041 161.421 31.375 170.325 31.375 179.953 C 31.375 181.546 30.453 187.686 31.375 188.608 C 42.662 199.896 48.065 217.559 58.061 227.556 C 86.755 256.251 113.532 291.682 143.89 322.041 C 152.859 331.01 158.203 344.165 168.413 352.333 C 189.505 369.207 209.66 384.34 221.065 407.149 C 221.78 408.578 239.329 408.835 241.26 407.87 C 255.196 400.901 264.917 384.357 278.044 376.856 C 306.148 360.796 329.147 338.873 354.497 319.155 C 360.323 314.624 367.305 309.867 373.25 306.894 C 379.229 303.905 380.797 292.134 384.79 288.142 C 399.629 273.302 411.493 255.636 418.689 234.047 C 423.429 219.826 433.965 207.1 440.326 194.378 C 442.752 189.528 439.796 179.488 440.326 174.183 C 442.26 154.85 446.358 122.907 438.884 104.221 C 434.871 94.19 424.244 88.699 418.689 78.977 C 412.404 67.98 407.056 58.376 396.33 53.012 C 379.145 44.42 349.646 47.242 329.253 47.242 C 323.934 47.242 310.099 45.48 306.173 49.406 C 298.953 56.626 286.663 63.715 276.601 71.765 C 269.079 77.783 265.236 87.035 257.849 91.96 C 252.368 95.614 236.125 90.729 231.162 89.075 C 199.897 78.654 168.184 56.094 135.235 42.915 C 123.494 38.218 110.126 41.045 100.615 45.8 C 93.409 49.403 91.924 62.389 84.026 62.389" transform="matrix(1, 0, 0, 1, 0, 7.105427357601002e-15)"/>
  <path style="stroke: rgb(0, 0, 0); fill: rgb(255, 0, 0); paint-order: fill; stroke-opacity: 0;" d="M 445.375 125.859 C 425.083 136.005 414.571 185.468 438.163 197.263 C 457.709 207.036 468.512 175.739 461.964 162.643 C 457.656 154.026 454.153 149.185 450.424 141.727 C 447.374 135.627 436.72 131.456 436.72 123.695" transform="matrix(1, 0, 0, 1, 0, 7.105427357601002e-15)"/>
  <path style="stroke: rgb(0, 0, 0); fill: rgb(255, 0, 0); paint-order: fill; stroke-opacity: 0;" d="M 73.929 63.11 C 62.239 63.11 58.36 76.614 49.406 82.584 C 24.808 98.983 8.389 144.801 23.441 174.904 C 26.032 180.088 35.89 183.747 40.03 187.887 C 42.486 190.343 41.475 197.266 43.636 199.427 C 46.113 201.904 53.558 191.665 54.455 190.051 C 63.433 173.89 69.302 161.393 73.207 143.169 C 78.951 116.367 91.022 90.134 100.615 64.552 C 102.017 60.813 104.629 51.163 107.106 48.685 C 107.709 48.082 111.065 43.988 110.713 43.636 C 107.705 40.629 95.19 51.758 92.681 53.012 C 89.115 54.795 84.761 59.136 81.141 60.946 C 71.881 65.576 61.417 63.925 54.455 73.207 C 50.58 78.374 44.357 78.569 44.357 85.469 C 46.856 84.219 41.472 74.942 41.472 78.977" transform="matrix(1, 0, 0, 1, 0, 7.105427357601002e-15)"/>
  <path style="stroke: rgb(0, 0, 0); fill: rgb(255, 0, 0); paint-order: fill; stroke-opacity: 0;" d="M 23.441 165.528 C 23.441 174.626 11.358 189.687 16.228 199.427 C 19.854 206.678 30.718 209.589 34.981 213.852 C 39.045 217.916 38.707 226.954 42.193 230.441 C 47.636 235.884 50.8 239.031 57.34 247.751 C 66.391 259.819 73.077 270.11 88.354 270.11 C 89.229 270.11 99.493 270.911 99.894 270.11 C 116.319 237.26 88.157 225.786 67.437 210.246 C 61.539 205.822 60.946 198.245 60.946 191.493 C 60.946 190.489 61.808 183.7 60.946 182.838 C 54.545 176.437 40.254 179.232 30.653 179.232" transform="matrix(1, 0, 0, 1, 0, 7.105427357601002e-15)"/>
  <path style="stroke: rgb(0, 0, 0); fill: rgb(255, 0, 0); paint-order: fill; stroke-opacity: 0;" d="M 441.048 89.075 C 422.362 107.761 402.778 137.613 397.051 166.249 C 396.355 169.731 393.495 189.38 396.33 192.215 C 400.236 196.12 407.311 212.491 411.476 214.573 C 415.392 216.531 418.888 214.772 422.295 218.18 C 423.971 219.856 429.118 235.159 436.72 227.556 C 458.354 205.921 455.473 177.552 455.473 149.66 C 455.473 140.162 462.355 120.089 446.818 120.089" transform="matrix(1, 0, 0, 1, 0, 7.105427357601002e-15)"/>
</svg>